<svg width="242" height="94" viewBox="0 0 242 94" fill="none" xmlns="http://www.w3.org/2000/svg">
<g clip-path="url(#clip0_3118_310)" filter="url(#filter0_d_3118_310)">
<path d="M114 48.3033V13.9377H127.642C130.091 13.9377 132.142 14.3012 133.792 15.0284C135.454 15.7555 136.7 16.7735 137.53 18.0823C138.371 19.3912 138.792 20.907 138.792 22.6297C138.792 23.9386 138.531 25.1076 138.009 26.1368C137.488 27.1548 136.769 27.9994 135.853 28.6706C134.937 29.3418 133.877 29.8116 132.674 30.0801V30.4157C133.995 30.4828 135.214 30.8576 136.332 31.54C137.461 32.2224 138.366 33.1732 139.048 34.3926C139.729 35.6008 140.07 37.0327 140.07 38.6883C140.07 40.5341 139.623 42.1841 138.728 43.6384C137.834 45.0815 136.54 46.2226 134.846 47.0616C133.153 47.8894 131.098 48.3033 128.68 48.3033H114ZM121.907 41.608H126.795C128.51 41.608 129.772 41.2668 130.581 40.5844C131.401 39.9021 131.811 38.9512 131.811 37.7318C131.811 36.8481 131.614 36.0874 131.22 35.4497C130.826 34.8009 130.267 34.3031 129.543 33.9563C128.819 33.5983 127.951 33.4193 126.939 33.4193H121.907V41.608ZM121.907 28.0665H126.284C127.147 28.0665 127.914 27.9155 128.585 27.6134C129.255 27.3114 129.777 26.8751 130.15 26.3046C130.533 25.7341 130.725 25.0461 130.725 24.2406C130.725 23.0884 130.336 22.1823 129.559 21.5223C128.782 20.8622 127.733 20.5322 126.412 20.5322H121.907V28.0665Z" fill="black"/>
<path d="M150.949 48.3033H142.45L153.489 13.9377H164.016L175.054 48.3033H166.556L158.872 22.5962H158.616L150.949 48.3033ZM149.814 34.7785H167.578V41.0878H149.814V34.7785Z" fill="black"/>
<path d="M178.576 48.3033V13.9377H192.09C194.54 13.9377 196.654 14.4019 198.432 15.3304C200.221 16.2477 201.601 17.5677 202.57 19.2905C203.539 21.0021 204.023 23.0325 204.023 25.3817C204.023 27.7644 203.528 29.7892 202.538 31.4561C201.547 33.1117 200.142 34.3758 198.32 35.2484C196.499 36.1098 194.343 36.5404 191.851 36.5404H183.305V29.9962H190.381C191.574 29.9962 192.57 29.834 193.368 29.5096C194.178 29.174 194.79 28.6706 195.205 27.9994C195.621 27.317 195.828 26.4444 195.828 25.3817C195.828 24.3189 195.621 23.4408 195.205 22.7472C194.79 22.0424 194.178 21.5167 193.368 21.1699C192.559 20.8119 191.563 20.6329 190.381 20.6329H186.483V48.3033H178.576ZM196.995 32.5971L205.141 48.3033H196.515L188.528 32.5971H196.995Z" fill="black"/>
<path d="M208.36 48.3033V13.9377H216.268V28.4692H216.699L227.514 13.9377H236.827L225.229 29.2747L237.034 48.3033H227.577L219.431 34.7953L216.268 38.9903V48.3033H208.36Z" fill="black"/>
<path fill-rule="evenodd" clip-rule="evenodd" d="M62.5464 38.5327L62.7269 41.7277L59.3549 40.3335L62.5464 38.5327ZM70.788 21.6244C70.788 21.6244 75.6472 28.2983 63.0644 24.3006C63.0644 24.3006 65.8112 21.3398 70.788 21.6244ZM64.1981 32.4872C68.216 37.1856 67.5617 45.0147 67.5617 45.0147C66.5031 43.3546 63.6679 42.1023 63.6679 42.1023C64.9135 36.5276 64.1981 32.4872 64.1981 32.4872ZM73.4785 38.5779L68.9013 44.7795L68.6361 38.3737L73.4785 38.5779ZM73.093 41.1352L74.2061 49.8464L69.252 45.892L73.093 41.1352ZM79.8004 40.6767C79.3022 47.8167 74.3809 52.7032 74.3809 52.7032C76.3128 45.8429 74.8791 38.7974 74.8791 38.7974L79.8004 40.6767ZM42.7063 38.5317L42.5267 41.7268L45.8988 40.3326L42.7063 38.5317ZM34.4648 21.6234C34.4648 21.6234 29.6056 28.2976 42.1885 24.2996C42.1885 24.2996 39.4415 21.3388 34.4648 21.6234ZM41.0556 32.4864C37.0377 37.1844 37.692 45.0139 37.692 45.0139C38.7506 43.3539 41.5848 42.1011 41.5848 42.1011C40.3392 36.5266 41.0556 32.4864 41.0556 32.4864ZM31.7742 38.577L36.3524 44.7785L36.6174 38.3729L31.7742 38.577ZM32.1598 41.1342L31.0457 49.8455L35.9998 45.8911L32.1598 41.1342ZM25.4523 40.6757C25.9505 47.8158 30.8718 52.7023 30.8718 52.7023C28.9409 45.8419 30.3736 38.7963 30.3736 38.7963L25.4523 40.6757ZM52.627 16.6083C52.627 16.6083 66.8584 0.572689 77.0734 11.9734C83.8559 -1.58741 89.9633 24.9254 92.1483 26.1922C82.2257 23.7834 80.0054 4.08931 61.5641 16.9847C79.7798 8.08529 80.1784 24.4887 84.3618 28.5726C84.3618 28.5726 79.3002 26.0513 73.8197 27.1479C73.8197 27.1479 75.1593 23.4525 72.7611 20.6025C72.7611 20.6025 76.0937 20.5712 77.6505 22.7947C74.5181 5.19157 59.1717 30.8792 55.9735 19.9445C55.9735 19.9445 55.008 22.6378 55.7865 24.517C55.7865 24.517 53.3601 22.4497 52.627 17.3448C51.8936 22.4497 49.4662 24.517 49.4662 24.517C50.2457 22.6378 49.2792 19.9445 49.2792 19.9445C46.0811 30.8792 30.7356 5.19157 27.6032 22.7947C29.1609 20.5712 32.4934 20.6025 32.4934 20.6025C30.0952 23.4525 31.4348 27.1479 31.4348 27.1479C25.9535 26.0523 20.8929 28.5726 20.8929 28.5726C25.0774 24.4887 25.4739 8.08529 43.6906 16.9847C25.2483 4.08931 23.028 23.7834 13.1064 26.1922C15.2911 24.9246 21.3969 -1.58741 28.1813 11.9734C38.3969 0.572689 52.627 16.6083 52.627 16.6083ZM62.6227 7.39989C62.6227 7.39989 56.8327 6.64829 52.627 10.9703C48.421 6.64829 42.631 7.39989 42.631 7.39989C46.1968 3.74987 59.0569 3.74987 62.6227 7.39989ZM96.2939 43.8501C100.984 37.3849 96.9265 33.8155 94.5989 32.4334C97.8488 32.371 100.376 30.6419 101.253 27.5062C90.663 26.5978 94.207 -5.27341 76.2725 5.92129C75.0276 0.961151 67.0617 3.51923 65.8338 3.9456C58.848 -1.3152 46.4007 -1.3152 39.416 3.9456C38.1893 3.51923 30.2232 0.961151 28.9776 5.92129C11.045 -5.27138 14.589 26.5997 4 27.5081C4.87718 30.6438 7.40398 32.3728 10.6529 32.4352C8.32713 33.8173 4.26884 37.3868 8.95784 43.8521C-18.4272 98.9355 123.68 98.9355 96.2939 43.8521V43.8501ZM92.6304 47.1607C92.6304 47.1607 95.9329 61.3171 82.977 70.3365C82.977 70.3365 85.6552 62.2568 81.5433 56.1177C81.5433 56.1177 83.9725 67.3918 69.3967 78.1667C69.3967 78.1667 74.2559 73.5307 73.7567 66.0146C70.0961 84.7292 35.1549 84.7292 31.4941 66.0146C30.9959 73.5307 35.8541 78.1667 35.8541 78.1667C21.2775 67.3918 23.7075 56.1177 23.7075 56.1177C19.5965 62.2568 22.2749 70.3365 22.2749 70.3365C9.31889 61.3161 12.6214 47.1607 12.6214 47.1607C14.8015 51.2322 18.414 52.2343 18.414 52.2343C2.63123 32.5127 19.733 31.2961 39.717 29.8403C36.5405 28.2426 33.8933 28.6198 33.8933 28.6198C37.9572 26.6526 44.8816 23.8535 48.562 27.5545C48.562 27.5545 44.5121 27.6792 43.6408 31.5626C43.7611 31.6733 55.0701 39.3929 50.1817 39.3929L48.2818 38.3909L46.8802 39.4865C46.8802 39.4865 44.8862 37.92 42.3332 36.8556C42.3332 36.8556 41.6479 32.2518 42.5824 29.4953C42.5824 29.4953 39.5918 30.6854 37.91 35.6967C37.91 35.6967 30.934 32.94 21.1542 36.8234C21.1542 36.8234 17.7287 48.6618 32.8028 59.5617C33.0443 37.8944 72.2075 37.8944 72.45 59.5617C87.524 48.6628 84.0976 36.8234 84.0976 36.8234C74.3179 32.94 67.3417 35.6967 67.3417 35.6967C65.66 30.6854 62.6695 29.4953 62.6695 29.4953C63.6039 32.2518 62.9188 36.8556 62.9188 36.8556C60.3644 37.92 58.3716 39.4865 58.3716 39.4865L56.97 38.3909L55.0701 39.3929C50.1817 39.3929 61.4908 31.6733 61.6102 31.5626C60.7377 27.6792 56.6889 27.5545 56.6889 27.5545C60.37 23.8535 67.2946 26.6526 71.3588 28.6198C71.3588 28.6198 68.7114 28.2435 65.5349 29.8403C85.5188 31.2961 102.621 32.5127 86.8387 52.2343C86.8387 52.2343 90.4503 51.2322 92.6304 47.1607Z" fill="black"/>
<path d="M65.6667 24.4325C66.5872 24.4325 67.3334 23.6863 67.3334 22.7658C67.3334 21.8453 66.5872 21.0991 65.6667 21.0991C64.7462 21.0991 64 21.8453 64 22.7658C64 23.6863 64.7462 24.4325 65.6667 24.4325Z" fill="black"/>
<path d="M39 24.4325C39.9205 24.4325 40.6666 23.6863 40.6666 22.7658C40.6666 21.8453 39.9205 21.0991 39 21.0991C38.0795 21.0991 37.3333 21.8453 37.3333 22.7658C37.3333 23.6863 38.0795 24.4325 39 24.4325Z" fill="black"/>
<path d="M118.09 74.4323C117.309 74.4323 116.608 74.3014 115.986 74.0396C115.375 73.7669 114.894 73.396 114.543 72.9269C114.192 72.4469 114.011 71.8961 114 71.2743H115.646C115.703 71.8088 115.929 72.2615 116.325 72.6324C116.732 72.9924 117.321 73.1724 118.09 73.1724C118.825 73.1724 119.402 72.9978 119.821 72.6488C120.251 72.2888 120.466 71.8306 120.466 71.2743C120.466 70.8379 120.341 70.4834 120.092 70.2107C119.843 69.938 119.532 69.7307 119.159 69.5889C118.786 69.4471 118.282 69.2944 117.649 69.1308C116.868 68.9344 116.24 68.7381 115.765 68.5417C115.301 68.3453 114.899 68.0399 114.56 67.6254C114.232 67.1999 114.068 66.6327 114.068 65.9237C114.068 65.3019 114.232 64.751 114.56 64.271C114.888 63.791 115.346 63.4201 115.935 63.1583C116.534 62.8965 117.219 62.7656 117.988 62.7656C119.097 62.7656 120.002 63.0329 120.703 63.5674C121.416 64.1019 121.818 64.811 121.908 65.6946H120.211C120.155 65.2582 119.917 64.8764 119.498 64.5492C119.08 64.211 118.525 64.0419 117.835 64.0419C117.19 64.0419 116.664 64.2056 116.257 64.5328C115.85 64.8492 115.646 65.2964 115.646 65.8746C115.646 66.2891 115.765 66.6273 116.002 66.8891C116.251 67.1509 116.551 67.3527 116.902 67.4945C117.264 67.6254 117.767 67.7781 118.412 67.9526C119.193 68.1599 119.821 68.3672 120.296 68.5744C120.771 68.7708 121.178 69.0817 121.518 69.5071C121.857 69.9216 122.027 70.4889 122.027 71.2088C122.027 71.7652 121.874 72.2888 121.569 72.7797C121.263 73.2705 120.811 73.6687 120.211 73.9741C119.612 74.2796 118.904 74.4323 118.09 74.4323Z" fill="#424242"/>
<path d="M140.744 62.9128V64.1236H137.519V74.3177H135.975V64.1236H132.734V62.9128H140.744Z" fill="#424242"/>
<path d="M158.8 71.7815H153.641L152.691 74.3178H151.062L155.338 62.9783H157.12L161.38 74.3178H159.751L158.8 71.7815ZM158.359 70.5707L156.221 64.811L154.083 70.5707H158.359Z" fill="#424242"/>
<path d="M178.822 74.3177L173.952 69.1143V74.3177H172.408V62.9128H173.952V68.198L178.839 62.9128H180.791L175.428 68.6234L180.842 74.3177H178.822Z" fill="#424242"/>
<path d="M193.275 62.9128V74.3177H191.73V62.9128H193.275Z" fill="#424242"/>
<path d="M214.37 74.3178H212.826L206.615 65.2364V74.3178H205.071V62.8965H206.615L212.826 71.9615V62.8965H214.37V74.3178Z" fill="#424242"/>
<path d="M235.127 66.2182C234.799 65.5528 234.324 65.0401 233.702 64.6801C233.079 64.3092 232.355 64.1237 231.53 64.1237C230.704 64.1237 229.957 64.3092 229.289 64.6801C228.633 65.0401 228.113 65.5637 227.728 66.2509C227.355 66.9272 227.168 67.7126 227.168 68.6071C227.168 69.5016 227.355 70.2871 227.728 70.9634C228.113 71.6397 228.633 72.1633 229.289 72.5342C229.957 72.8942 230.704 73.0742 231.53 73.0742C232.683 73.0742 233.634 72.7415 234.381 72.0761C235.127 71.4106 235.563 70.5107 235.687 69.3762H230.969V68.1654H237.333V69.3107C237.243 70.2489 236.937 71.1107 236.417 71.8961C235.897 72.6706 235.212 73.2869 234.364 73.7451C233.515 74.1923 232.57 74.4159 231.53 74.4159C230.432 74.4159 229.431 74.1705 228.526 73.6796C227.621 73.1778 226.902 72.4851 226.371 71.6015C225.85 70.7179 225.59 69.7198 225.59 68.6071C225.59 67.4945 225.85 66.4963 226.371 65.6128C226.902 64.7183 227.621 64.0256 228.526 63.5347C229.431 63.0329 230.432 62.782 231.53 62.782C232.785 62.782 233.894 63.082 234.856 63.6819C235.829 64.2819 236.536 65.1273 236.977 66.2182H235.127Z" fill="#424242"/>
</g>
<defs>
<filter id="filter0_d_3118_310" x="0" y="0" width="241.333" height="93.1646" filterUnits="userSpaceOnUse" color-interpolation-filters="sRGB">
<feFlood flood-opacity="0" result="BackgroundImageFix"/>
<feColorMatrix in="SourceAlpha" type="matrix" values="0 0 0 0 0 0 0 0 0 0 0 0 0 0 0 0 0 0 127 0" result="hardAlpha"/>
<feOffset dy="4"/>
<feGaussianBlur stdDeviation="2"/>
<feComposite in2="hardAlpha" operator="out"/>
<feColorMatrix type="matrix" values="0 0 0 0 0.0627279 0 0 0 0 0.0627279 0 0 0 0 0.0627279 0 0 0 0.02 0"/>
<feBlend mode="normal" in2="BackgroundImageFix" result="effect1_dropShadow_3118_310"/>
<feBlend mode="normal" in="SourceGraphic" in2="effect1_dropShadow_3118_310" result="shape"/>
</filter>
<clipPath id="clip0_3118_310">
<rect width="233.333" height="85.1646" fill="white" transform="translate(4)"/>
</clipPath>
</defs>
</svg>
