<svg width="242" height="94" viewBox="0 0 242 94" fill="none" xmlns="http://www.w3.org/2000/svg">
<g filter="url(#filter0_d_3118_381)">
<path d="M114 48.4679V14.1023H127.642C130.091 14.1023 132.142 14.4658 133.792 15.193C135.454 15.9201 136.7 16.9381 137.53 18.2469C138.371 19.5558 138.792 21.0716 138.792 22.7943C138.792 24.1032 138.531 25.2722 138.009 26.3014C137.488 27.3194 136.769 28.164 135.853 28.8352C134.937 29.5064 133.877 29.9762 132.674 30.2447V30.5803C133.995 30.6474 135.214 31.0222 136.332 31.7046C137.461 32.387 138.366 33.3378 139.048 34.5572C139.729 35.7654 140.07 37.1973 140.07 38.8529C140.07 40.6987 139.623 42.3487 138.728 43.803C137.834 45.2461 136.54 46.3872 134.846 47.2262C133.153 48.054 131.098 48.4679 128.68 48.4679H114ZM121.907 41.7726H126.795C128.51 41.7726 129.772 41.4314 130.581 40.749C131.401 40.0667 131.811 39.1158 131.811 37.8964C131.811 37.0127 131.614 36.252 131.22 35.6143C130.826 34.9655 130.267 34.4677 129.543 34.1209C128.819 33.7629 127.951 33.5839 126.939 33.5839H121.907V41.7726ZM121.907 28.2311H126.284C127.147 28.2311 127.914 28.0801 128.585 27.778C129.255 27.476 129.777 27.0397 130.15 26.4692C130.533 25.8987 130.725 25.2107 130.725 24.4052C130.725 23.253 130.336 22.3469 129.559 21.6869C128.782 21.0268 127.733 20.6968 126.412 20.6968H121.907V28.2311Z" fill="white"/>
<path d="M150.949 48.4679H142.45L153.489 14.1023H164.016L175.054 48.4679H166.556L158.872 22.7608H158.616L150.949 48.4679ZM149.814 34.9431H167.578V41.2524H149.814V34.9431Z" fill="white"/>
<path d="M178.576 48.4679V14.1023H192.09C194.54 14.1023 196.654 14.5665 198.432 15.495C200.221 16.4123 201.601 17.7323 202.57 19.4551C203.539 21.1667 204.023 23.1971 204.023 25.5463C204.023 27.929 203.528 29.9538 202.538 31.6207C201.547 33.2763 200.142 34.5404 198.32 35.413C196.499 36.2744 194.343 36.705 191.851 36.705H183.305V30.1608H190.381C191.574 30.1608 192.57 29.9986 193.368 29.6742C194.178 29.3386 194.79 28.8352 195.205 28.164C195.621 27.4816 195.828 26.609 195.828 25.5463C195.828 24.4835 195.621 23.6054 195.205 22.9118C194.79 22.207 194.178 21.6813 193.368 21.3345C192.559 20.9765 191.563 20.7975 190.381 20.7975H186.483V48.4679H178.576ZM196.995 32.7617L205.141 48.4679H196.515L188.528 32.7617H196.995Z" fill="white"/>
<path d="M208.36 48.4679V14.1023H216.268V28.6338H216.699L227.514 14.1023H236.827L225.229 29.4393L237.034 48.4679H227.577L219.431 34.9599L216.268 39.1549V48.4679H208.36Z" fill="white"/>
<path fill-rule="evenodd" clip-rule="evenodd" d="M62.5464 38.6972L62.7269 41.8922L59.3549 40.498L62.5464 38.6972ZM70.788 21.7889C70.788 21.7889 75.6472 28.4628 63.0644 24.4651C63.0644 24.4651 65.8112 21.5043 70.788 21.7889ZM64.1981 32.6517C68.216 37.3501 67.5617 45.1792 67.5617 45.1792C66.5031 43.5191 63.6679 42.2668 63.6679 42.2668C64.9135 36.6921 64.1981 32.6517 64.1981 32.6517ZM73.4785 38.7424L68.9013 44.944L68.6361 38.5382L73.4785 38.7424ZM73.093 41.2997L74.2061 50.0109L69.252 46.0565L73.093 41.2997ZM79.8004 40.8412C79.3022 47.9812 74.3809 52.8677 74.3809 52.8677C76.3128 46.0074 74.8791 38.9619 74.8791 38.9619L79.8004 40.8412ZM42.7063 38.6962L42.5267 41.8913L45.8988 40.4971L42.7063 38.6962ZM34.4648 21.7879C34.4648 21.7879 29.6056 28.4621 42.1885 24.4641C42.1885 24.4641 39.4415 21.5033 34.4648 21.7879ZM41.0556 32.6509C37.0377 37.3489 37.692 45.1784 37.692 45.1784C38.7506 43.5184 41.5848 42.2656 41.5848 42.2656C40.3392 36.6911 41.0556 32.6509 41.0556 32.6509ZM31.7742 38.7415L36.3524 44.943L36.6174 38.5374L31.7742 38.7415ZM32.1598 41.2987L31.0457 50.01L35.9998 46.0556L32.1598 41.2987ZM25.4523 40.8402C25.9505 47.9803 30.8718 52.8668 30.8718 52.8668C28.9409 46.0064 30.3736 38.9608 30.3736 38.9608L25.4523 40.8402ZM52.627 16.7728C52.627 16.7728 66.8584 0.737242 77.0734 12.1379C83.8559 -1.42286 89.9633 25.0899 92.1483 26.3567C82.2257 23.9479 80.0054 4.25386 61.5641 17.1492C79.7798 8.24984 80.1784 24.6532 84.3618 28.7371C84.3618 28.7371 79.3002 26.2158 73.8197 27.3124C73.8197 27.3124 75.1593 23.617 72.7611 20.767C72.7611 20.767 76.0937 20.7357 77.6505 22.9592C74.5181 5.35612 59.1717 31.0437 55.9735 20.109C55.9735 20.109 55.008 22.8023 55.7865 24.6815C55.7865 24.6815 53.3601 22.6142 52.627 17.5093C51.8936 22.6142 49.4662 24.6815 49.4662 24.6815C50.2457 22.8023 49.2792 20.109 49.2792 20.109C46.0811 31.0437 30.7356 5.35612 27.6032 22.9592C29.1609 20.7357 32.4934 20.767 32.4934 20.767C30.0952 23.617 31.4348 27.3124 31.4348 27.3124C25.9535 26.2168 20.8929 28.7371 20.8929 28.7371C25.0774 24.6532 25.4739 8.24984 43.6906 17.1492C25.2483 4.25386 23.028 23.9479 13.1064 26.3567C15.2911 25.0891 21.3969 -1.42286 28.1813 12.1379C38.3969 0.737242 52.627 16.7728 52.627 16.7728ZM62.6227 7.56444C62.6227 7.56444 56.8327 6.81284 52.627 11.1348C48.421 6.81284 42.631 7.56444 42.631 7.56444C46.1968 3.91442 59.0569 3.91442 62.6227 7.56444ZM96.2939 44.0146C100.984 37.5494 96.9265 33.98 94.5989 32.5979C97.8488 32.5355 100.376 30.8064 101.253 27.6707C90.663 26.7623 94.207 -5.10886 76.2725 6.08584C75.0276 1.1257 67.0617 3.68378 65.8338 4.11015C58.848 -1.15065 46.4007 -1.15065 39.416 4.11015C38.1893 3.68378 30.2232 1.1257 28.9776 6.08584C11.045 -5.10683 14.589 26.7642 4 27.6726C4.87718 30.8083 7.40398 32.5373 10.6529 32.5997C8.32713 33.9818 4.26884 37.5513 8.95784 44.0166C-18.4272 99.1 123.68 99.1 96.2939 44.0166V44.0146ZM92.6304 47.3252C92.6304 47.3252 95.9329 61.4816 82.977 70.501C82.977 70.501 85.6552 62.4213 81.5433 56.2822C81.5433 56.2822 83.9725 67.5563 69.3967 78.3312C69.3967 78.3312 74.2559 73.6952 73.7567 66.1791C70.0961 84.8937 35.1549 84.8937 31.4941 66.1791C30.9959 73.6952 35.8541 78.3312 35.8541 78.3312C21.2775 67.5563 23.7075 56.2822 23.7075 56.2822C19.5965 62.4213 22.2749 70.501 22.2749 70.501C9.31889 61.4806 12.6214 47.3252 12.6214 47.3252C14.8015 51.3967 18.414 52.3988 18.414 52.3988C2.63123 32.6772 19.733 31.4606 39.717 30.0048C36.5405 28.4071 33.8933 28.7843 33.8933 28.7843C37.9572 26.8171 44.8816 24.018 48.562 27.719C48.562 27.719 44.5121 27.8437 43.6408 31.7271C43.7611 31.8378 55.0701 39.5574 50.1817 39.5574L48.2818 38.5554L46.8802 39.651C46.8802 39.651 44.8862 38.0845 42.3332 37.0201C42.3332 37.0201 41.6479 32.4163 42.5824 29.6598C42.5824 29.6598 39.5918 30.8499 37.91 35.8612C37.91 35.8612 30.934 33.1045 21.1542 36.9879C21.1542 36.9879 17.7287 48.8263 32.8028 59.7262C33.0443 38.0589 72.2075 38.0589 72.45 59.7262C87.524 48.8273 84.0976 36.9879 84.0976 36.9879C74.3179 33.1045 67.3417 35.8612 67.3417 35.8612C65.66 30.8499 62.6695 29.6598 62.6695 29.6598C63.6039 32.4163 62.9188 37.0201 62.9188 37.0201C60.3644 38.0845 58.3716 39.651 58.3716 39.651L56.97 38.5554L55.0701 39.5574C50.1817 39.5574 61.4908 31.8378 61.6102 31.7271C60.7377 27.8437 56.6889 27.719 56.6889 27.719C60.37 24.018 67.2946 26.8171 71.3588 28.7843C71.3588 28.7843 68.7114 28.408 65.5349 30.0048C85.5188 31.4606 102.621 32.6772 86.8387 52.3988C86.8387 52.3988 90.4503 51.3967 92.6304 47.3252Z" fill="white"/>
<path d="M65.6667 24.5971C66.5872 24.5971 67.3334 23.8509 67.3334 22.9304C67.3334 22.0099 66.5872 21.2637 65.6667 21.2637C64.7462 21.2637 64 22.0099 64 22.9304C64 23.8509 64.7462 24.5971 65.6667 24.5971Z" fill="white"/>
<path d="M39 24.5971C39.9205 24.5971 40.6665 23.8509 40.6665 22.9304C40.6665 22.0099 39.9205 21.2637 39 21.2637C38.0795 21.2637 37.3333 22.0099 37.3333 22.9304C37.3333 23.8509 38.0795 24.5971 39 24.5971Z" fill="white"/>
<path d="M118.09 74.5969C117.309 74.5969 116.608 74.466 115.986 74.2042C115.375 73.9315 114.894 73.5606 114.543 73.0915C114.192 72.6115 114.011 72.0607 114 71.4389H115.646C115.703 71.9734 115.929 72.4261 116.325 72.797C116.732 73.157 117.321 73.337 118.09 73.337C118.825 73.337 119.402 73.1624 119.821 72.8134C120.251 72.4534 120.466 71.9952 120.466 71.4389C120.466 71.0025 120.341 70.648 120.092 70.3753C119.843 70.1026 119.532 69.8953 119.159 69.7535C118.786 69.6117 118.282 69.459 117.649 69.2954C116.868 69.099 116.24 68.9027 115.765 68.7063C115.301 68.5099 114.899 68.2045 114.56 67.79C114.232 67.3645 114.068 66.7973 114.068 66.0883C114.068 65.4665 114.232 64.9156 114.56 64.4356C114.888 63.9556 115.346 63.5847 115.935 63.3229C116.534 63.0611 117.219 62.9302 117.988 62.9302C119.097 62.9302 120.002 63.1975 120.703 63.732C121.416 64.2665 121.818 64.9756 121.908 65.8592H120.211C120.155 65.4228 119.917 65.041 119.498 64.7138C119.08 64.3756 118.525 64.2065 117.835 64.2065C117.19 64.2065 116.664 64.3702 116.257 64.6974C115.85 65.0138 115.646 65.461 115.646 66.0392C115.646 66.4537 115.765 66.7919 116.002 67.0537C116.251 67.3155 116.551 67.5173 116.902 67.6591C117.264 67.79 117.767 67.9427 118.412 68.1172C119.193 68.3245 119.821 68.5318 120.296 68.739C120.771 68.9354 121.178 69.2463 121.518 69.6717C121.857 70.0862 122.027 70.6535 122.027 71.3734C122.027 71.9298 121.874 72.4534 121.569 72.9443C121.263 73.4351 120.811 73.8333 120.211 74.1387C119.612 74.4442 118.904 74.5969 118.09 74.5969Z" fill="#F2F2F2"/>
<path d="M140.744 63.0774V64.2882H137.519V74.4823H135.975V64.2882H132.734V63.0774H140.744Z" fill="#F2F2F2"/>
<path d="M158.8 71.946H153.641L152.691 74.4823H151.062L155.338 63.1428H157.12L161.38 74.4823H159.751L158.8 71.946ZM158.359 70.7352L156.221 64.9755L154.083 70.7352H158.359Z" fill="#F2F2F2"/>
<path d="M178.822 74.4823L173.952 69.2789V74.4823H172.408V63.0774H173.952V68.3626L178.839 63.0774H180.791L175.428 68.788L180.842 74.4823H178.822Z" fill="#F2F2F2"/>
<path d="M193.275 63.0774V74.4823H191.73V63.0774H193.275Z" fill="#F2F2F2"/>
<path d="M214.37 74.4823H212.826L206.615 65.4009V74.4823H205.071V63.061H206.615L212.826 72.126V63.061H214.37V74.4823Z" fill="#F2F2F2"/>
<path d="M235.127 66.3827C234.799 65.7173 234.324 65.2046 233.702 64.8446C233.079 64.4737 232.355 64.2882 231.53 64.2882C230.704 64.2882 229.957 64.4737 229.289 64.8446C228.633 65.2046 228.113 65.7282 227.728 66.4154C227.355 67.0917 227.168 67.8771 227.168 68.7716C227.168 69.6661 227.355 70.4516 227.728 71.1279C228.113 71.8042 228.633 72.3278 229.289 72.6987C229.957 73.0587 230.704 73.2387 231.53 73.2387C232.683 73.2387 233.634 72.906 234.381 72.2406C235.127 71.5751 235.563 70.6752 235.687 69.5407H230.969V68.3299H237.333V69.4752C237.243 70.4134 236.937 71.2752 236.417 72.0606C235.897 72.8351 235.212 73.4514 234.364 73.9096C233.515 74.3568 232.57 74.5804 231.53 74.5804C230.432 74.5804 229.431 74.335 228.526 73.8441C227.621 73.3423 226.902 72.6496 226.371 71.766C225.85 70.8824 225.59 69.8843 225.59 68.7716C225.59 67.659 225.85 66.6608 226.371 65.7773C226.902 64.8828 227.621 64.1901 228.526 63.6992C229.431 63.1974 230.432 62.9465 231.53 62.9465C232.785 62.9465 233.894 63.2465 234.856 63.8464C235.829 64.4464 236.536 65.2918 236.977 66.3827H235.127Z" fill="#F2F2F2"/>
</g>
<defs>
<filter id="filter0_d_3118_381" x="0" y="0.164551" width="241.333" height="93.1646" filterUnits="userSpaceOnUse" color-interpolation-filters="sRGB">
<feFlood flood-opacity="0" result="BackgroundImageFix"/>
<feColorMatrix in="SourceAlpha" type="matrix" values="0 0 0 0 0 0 0 0 0 0 0 0 0 0 0 0 0 0 127 0" result="hardAlpha"/>
<feOffset dy="4"/>
<feGaussianBlur stdDeviation="2"/>
<feComposite in2="hardAlpha" operator="out"/>
<feColorMatrix type="matrix" values="0 0 0 0 0.0627279 0 0 0 0 0.0627279 0 0 0 0 0.0627279 0 0 0 0.02 0"/>
<feBlend mode="normal" in2="BackgroundImageFix" result="effect1_dropShadow_3118_381"/>
<feBlend mode="normal" in="SourceGraphic" in2="effect1_dropShadow_3118_381" result="shape"/>
</filter>
</defs>
</svg>
