<svg width="150" height="57" viewBox="0 0 150 57" fill="none" xmlns="http://www.w3.org/2000/svg">
<path d="M65.95 31.6194V31.6694H66H74.8082C76.2642 31.6694 77.5054 31.4201 78.5299 30.9193L78.5301 30.9191C79.5534 30.4121 80.3373 29.7215 80.8794 28.8468L80.8795 28.8467C81.4215 27.9656 81.6921 26.9663 81.6921 25.8504C81.6921 24.8501 81.4861 23.9822 81.0722 23.2485C80.6593 22.5098 80.1103 21.9328 79.4252 21.5187C78.7606 21.1131 78.0367 20.8867 77.2544 20.8395V20.7254C77.9665 20.5616 78.5957 20.2799 79.1413 19.8801C79.6971 19.4727 80.1335 18.96 80.4501 18.3423L80.4502 18.3421C80.7673 17.7167 80.9253 17.0074 80.9253 16.2153C80.9253 15.1731 80.6707 14.2541 80.1602 13.4599C79.6557 12.6649 78.8996 12.0482 77.8954 11.6086C76.8968 11.1688 75.6594 10.95 74.1852 10.95H66H65.95V11V31.6194ZM75.9168 26.9496L75.9166 26.9498C75.4441 27.3482 74.701 27.5522 73.6773 27.5522H70.7944V22.739H73.7635C74.3648 22.739 74.8776 22.8454 75.3037 23.056L75.3042 23.0563C75.7305 23.2604 76.0584 23.5527 76.2895 23.9332L76.2897 23.9335C76.5204 24.3069 76.6368 24.7539 76.6368 25.2765C76.6368 25.9956 76.3957 26.5511 75.9168 26.9496ZM75.6485 18.3923L75.6482 18.3928C75.4302 18.7265 75.1248 18.9822 74.7302 19.1599C74.3351 19.3377 73.8823 19.4273 73.3706 19.4273H70.7944V15.0067H73.4472C74.2313 15.0067 74.848 15.2026 75.303 15.5889C75.7568 15.9741 75.9851 16.503 75.9851 17.1818C75.9851 17.6569 75.8721 18.0595 75.6485 18.3923ZM88.1692 31.6694H88.2064L88.2171 31.6337L89.4977 27.3401H96.2021L97.4854 31.6337L97.4961 31.6694H97.5333H102.632H102.701L102.68 31.6041L96.057 10.9847L96.0458 10.95H96.0094H89.6931H89.6567L89.6455 10.9847L83.0226 31.6041L83.0016 31.6694H83.0702H88.1692ZM92.8859 16.2451L95.0407 23.4545H90.6567L92.807 16.2451H92.8859ZM104.696 31.6194V31.6694H104.746H109.49H109.54V31.6194V24.6117H111.889L115.465 31.642L115.479 31.6694H115.509H120.685H120.767L120.729 31.5964L116.684 23.7975C117.751 23.2712 118.579 22.5176 119.166 21.5367L119.166 21.5366C119.765 20.5272 120.064 19.303 120.064 17.8664C120.064 16.45 119.772 15.223 119.185 14.1872C118.599 13.1449 117.764 12.346 116.682 11.7912C115.607 11.2297 114.33 10.95 112.854 10.95H104.746H104.696V11V31.6194ZM111.829 20.5851H109.54V15.0672H111.829C112.533 15.0672 113.123 15.1739 113.601 15.3851L113.601 15.3853C114.078 15.5895 114.437 15.8981 114.68 16.3111L114.68 16.3114C114.924 16.7177 115.047 17.235 115.047 17.8664C115.047 18.4978 114.924 19.0116 114.681 19.411C114.438 19.8037 114.079 20.0992 113.602 20.2969C113.131 20.4883 112.54 20.5851 111.829 20.5851ZM122.566 31.6194V31.6694H122.616H127.361H127.411V31.6194V26.0483L129.254 23.6038L134.104 31.6452L134.118 31.6694H134.146H139.821H139.91L139.863 31.593L132.798 20.205L139.736 11.0302L139.796 10.95H139.696H134.108H134.083L134.068 10.9701L127.594 19.6689H127.411V11V10.95H127.361H122.616H122.566V11V31.6194Z" fill="white" stroke="white" stroke-width="0.1"/>
<g clip-path="url(#clip0_3113_326)">
<path fill-rule="evenodd" clip-rule="evenodd" d="M35.1279 25.7569L35.2361 27.674L33.213 26.8374L35.1279 25.7569ZM40.0728 15.6119C40.0728 15.6119 42.9883 19.6163 35.4386 17.2177C35.4386 17.2177 37.0867 15.4412 40.0728 15.6119ZM36.1189 22.1296C38.5296 24.9487 38.137 29.6461 38.137 29.6461C37.5019 28.6501 35.8008 27.8987 35.8008 27.8987C36.5481 24.5539 36.1189 22.1296 36.1189 22.1296ZM41.6871 25.7841L38.9408 29.505L38.7817 25.6615L41.6871 25.7841ZM41.4558 27.3184L42.1237 32.5452L39.1512 30.1725L41.4558 27.3184ZM45.4803 27.0434C45.1813 31.3273 42.2286 34.2593 42.2286 34.2593C43.3877 30.143 42.5275 25.9158 42.5275 25.9158L45.4803 27.0434ZM23.2238 25.7564L23.116 27.6734L25.1393 26.8369L23.2238 25.7564ZM18.2789 15.6114C18.2789 15.6114 15.3634 19.6159 22.9131 17.2171C22.9131 17.2171 21.2649 15.4406 18.2789 15.6114ZM22.2334 22.1292C19.8226 24.948 20.2152 29.6457 20.2152 29.6457C20.8504 28.6497 22.5509 27.898 22.5509 27.898C21.8035 24.5533 22.2334 22.1292 22.2334 22.1292ZM16.6645 25.7835L19.4115 29.5044L19.5704 25.6611L16.6645 25.7835ZM16.8959 27.3178L16.2274 32.5446L19.1999 30.172L16.8959 27.3178ZM12.8714 27.0427C13.1703 31.3268 16.1231 34.2587 16.1231 34.2587C14.9645 30.1425 15.8242 25.9151 15.8242 25.9151L12.8714 27.0427ZM29.1762 12.6023C29.1762 12.6023 37.715 2.98094 43.844 9.82135C47.9135 1.68488 51.578 17.5926 52.889 18.3527C46.9354 16.9073 45.6033 5.09092 34.5385 12.8281C45.4679 7.4885 45.707 17.3306 48.2171 19.7809C48.2171 19.7809 45.1801 18.2681 41.8918 18.926C41.8918 18.926 42.6956 16.7088 41.2566 14.9988C41.2566 14.9988 43.2563 14.9801 44.1903 16.3141C42.3108 5.75227 33.103 21.1649 31.1841 14.604C31.1841 14.604 30.6048 16.22 31.0719 17.3475C31.0719 17.3475 29.6161 16.1071 29.1762 13.0442C28.7362 16.1071 27.2797 17.3475 27.2797 17.3475C27.7474 16.22 27.1675 14.604 27.1675 14.604C25.2486 21.1649 16.0414 5.75227 14.1619 16.3141C15.0966 14.9801 17.0961 14.9988 17.0961 14.9988C15.6571 16.7088 16.4609 18.926 16.4609 18.926C13.1721 18.2687 10.1357 19.7809 10.1357 19.7809C12.6464 17.3306 12.8843 7.4885 23.8143 12.8281C12.749 5.09092 11.4168 16.9073 5.46386 18.3527C6.77468 17.5921 10.4381 1.68488 14.5088 9.82135C20.6382 2.98094 29.1762 12.6023 29.1762 12.6023ZM35.1736 7.07726C35.1736 7.07726 31.6996 6.62633 29.1762 9.21951C26.6526 6.62633 23.1786 7.07726 23.1786 7.07726C25.3181 4.88725 33.0341 4.88725 35.1736 7.07726ZM55.3764 28.9474C58.1905 25.0683 55.7559 22.9266 54.3594 22.0973C56.3093 22.0599 57.8253 21.0225 58.3517 19.141C51.9978 18.596 54.1242 -0.526716 43.3635 6.19008C42.6166 3.21402 37.837 4.74887 37.1003 5.00469C32.9088 1.84821 25.4404 1.84821 21.2496 5.00469C20.5136 4.74887 15.7339 3.21402 14.9866 6.19008C4.22702 -0.525496 6.3534 18.5971 0 19.1422C0.526311 21.0236 2.04239 22.061 3.99173 22.0984C2.59628 22.9277 0.161305 25.0694 2.9747 28.9486C-13.4563 61.9988 71.8078 61.9988 55.3764 28.9486V28.9474ZM53.1782 30.9338C53.1782 30.9338 55.1598 39.4276 47.3862 44.8392C47.3862 44.8392 48.9931 39.9914 46.526 36.3079C46.526 36.3079 47.9835 43.0724 39.238 49.5374C39.238 49.5374 42.1535 46.7558 41.854 42.2461C39.6577 53.4748 18.6929 53.4748 16.4965 42.2461C16.1976 46.7558 19.1125 49.5374 19.1125 49.5374C10.3665 43.0724 11.8245 36.3079 11.8245 36.3079C9.35793 39.9914 10.965 44.8392 10.965 44.8392C3.19133 39.427 5.17284 30.9338 5.17284 30.9338C6.4809 33.3766 8.64841 33.9779 8.64841 33.9779C-0.821261 22.1449 9.4398 21.415 21.4302 20.5415C19.5243 19.5829 17.936 19.8092 17.936 19.8092C20.3743 18.6289 24.529 16.9494 26.7372 19.17C26.7372 19.17 24.3073 19.2448 23.7845 21.5749C23.8566 21.6413 30.6421 26.2731 27.709 26.2731L26.5691 25.6718L25.7281 26.3292C25.7281 26.3292 24.5317 25.3893 22.9999 24.7507C22.9999 24.7507 22.5887 21.9884 23.1494 20.3345C23.1494 20.3345 21.3551 21.0486 20.346 24.0553C20.346 24.0553 16.1604 22.4013 10.2925 24.7314C10.2925 24.7314 8.23723 31.8344 17.2817 38.3743C17.4266 25.3739 40.9245 25.3739 41.07 38.3743C50.1144 31.835 48.0585 24.7314 48.0585 24.7314C42.1907 22.4013 38.005 24.0553 38.005 24.0553C36.996 21.0486 35.2017 20.3345 35.2017 20.3345C35.7623 21.9884 35.3513 24.7507 35.3513 24.7507C33.8187 25.3893 32.623 26.3292 32.623 26.3292L31.782 25.6718L30.6421 26.2731C27.709 26.2731 34.4945 21.6413 34.5661 21.5749C34.0426 19.2448 31.6134 19.17 31.6134 19.17C33.822 16.9494 37.9768 18.6289 40.4153 19.8092C40.4153 19.8092 38.8268 19.5834 36.9209 20.5415C48.9113 21.415 59.1726 22.1449 49.7032 33.9779C49.7032 33.9779 51.8702 33.3766 53.1782 30.9338Z" fill="white"/>
<circle cx="21" cy="16" r="1" fill="white"/>
<circle cx="38" cy="16" r="1" fill="white"/>
</g>
<path d="M67.8125 46.9361C67.184 46.9361 66.7239 46.7846 66.4323 46.4814C66.1441 46.1782 66 45.6979 66 45.0405C66 44.9747 66.0208 44.9199 66.0625 44.8761C66.1042 44.8323 66.1562 44.8104 66.2187 44.8104C66.2812 44.8104 66.3333 44.8323 66.375 44.8761C66.4167 44.9199 66.4375 44.9747 66.4375 45.0405C66.4375 45.5701 66.5382 45.9427 66.7396 46.1582C66.9444 46.37 67.3021 46.4759 67.8125 46.4759H69.3124C69.8228 46.4759 70.1787 46.37 70.3801 46.1582C70.585 45.9427 70.6874 45.5701 70.6874 45.0405C70.6874 44.5072 70.585 44.1347 70.3801 43.9228C70.1787 43.711 69.8228 43.605 69.3124 43.605H67.8437C67.2465 43.605 66.8107 43.4626 66.5364 43.1777C66.2621 42.8891 66.125 42.4326 66.125 41.808C66.125 41.1834 66.2604 40.7287 66.5312 40.4438C66.8055 40.1552 67.2396 40.011 67.8333 40.011H69.3645C69.9582 40.011 70.3905 40.1534 70.6614 40.4383C70.9356 40.7232 71.0728 41.1761 71.0728 41.797C71.0728 41.8628 71.052 41.9176 71.0103 41.9614C70.9686 42.0052 70.9166 42.0272 70.8541 42.0272C70.7916 42.0272 70.7395 42.0052 70.6978 41.9614C70.6561 41.9176 70.6353 41.8628 70.6353 41.797C70.6353 41.3076 70.5398 40.9643 70.3489 40.767C70.1614 40.5698 69.8332 40.4712 69.3645 40.4712H67.8333C67.3646 40.4712 67.0347 40.5716 66.8437 40.7725C66.6562 40.9697 66.5625 41.3149 66.5625 41.808C66.5625 42.3011 66.658 42.6481 66.8489 42.849C67.0399 43.0462 67.3715 43.1448 67.8437 43.1448H69.3124C69.9444 43.1448 70.4044 43.2964 70.6926 43.5996C70.9808 43.9027 71.1249 44.383 71.1249 45.0405C71.1249 45.6979 70.9808 46.1782 70.6926 46.4814C70.4044 46.7846 69.9444 46.9361 69.3124 46.9361H67.8125Z" fill="white"/>
<path d="M80.3594 46.9581C80.297 46.9581 80.2449 46.9361 80.2032 46.8923C80.1615 46.8485 80.1407 46.7937 80.1407 46.7279V40.4602H77.8595C77.797 40.4602 77.7449 40.4383 77.7033 40.3945C77.6616 40.3506 77.6408 40.2959 77.6408 40.2301C77.6408 40.1644 77.6616 40.1096 77.7033 40.0657C77.7449 40.0219 77.797 40 77.8595 40H82.8594C82.9219 40 82.974 40.0219 83.0156 40.0657C83.0573 40.1096 83.0781 40.1644 83.0781 40.2301C83.0781 40.2959 83.0573 40.3506 83.0156 40.3945C82.974 40.4383 82.9219 40.4602 82.8594 40.4602H80.5782V46.7279C80.5782 46.7937 80.5574 46.8485 80.5157 46.8923C80.474 46.9361 80.4219 46.9581 80.3594 46.9581Z" fill="white"/>
<path d="M88.783 46.9252C88.6545 46.8594 88.6163 46.7572 88.6684 46.6184L91.2829 40.1863C91.3246 40.0694 91.4079 40.011 91.5329 40.011H91.5642C91.6788 40.011 91.7621 40.0694 91.8142 40.1863L94.4183 46.6184C94.4773 46.7572 94.4391 46.8594 94.3037 46.9252C94.1718 46.9836 94.078 46.9434 94.0225 46.8047L93.2881 44.9857H89.8194L89.0747 46.8047C89.0191 46.9434 88.9219 46.9836 88.783 46.9252ZM90.0069 44.5255H93.1006L91.5642 40.7342L90.0069 44.5255Z" fill="white"/>
<path d="M101.852 46.9471C101.706 46.9471 101.634 46.8704 101.634 46.717V40.2411C101.634 40.0877 101.706 40.011 101.852 40.011C101.998 40.011 102.071 40.0877 102.071 40.2411V43.5776L105.311 40.0877C105.411 39.9817 105.512 39.9817 105.613 40.0877C105.72 40.1899 105.724 40.2995 105.623 40.4164L103.248 42.9695L106.04 46.6074C106.133 46.7279 106.123 46.8375 106.008 46.9361C105.897 47.0311 105.797 47.0202 105.706 46.9033L102.946 43.2982L102.071 44.2406V46.717C102.071 46.8704 101.998 46.9471 101.852 46.9471Z" fill="white"/>
<path d="M113.509 46.9471C113.446 46.9471 113.394 46.9252 113.353 46.8814C113.311 46.8375 113.29 46.7827 113.29 46.717V40.2301C113.29 40.1644 113.311 40.1096 113.353 40.0657C113.394 40.0219 113.446 40 113.509 40C113.571 40 113.623 40.0219 113.665 40.0657C113.707 40.1096 113.728 40.1644 113.728 40.2301V46.717C113.728 46.7827 113.707 46.8375 113.665 46.8814C113.623 46.9252 113.571 46.9471 113.509 46.9471Z" fill="white"/>
<path d="M121.86 46.9471C121.714 46.9471 121.641 46.8704 121.641 46.717V40.2411C121.641 40.0877 121.714 40.011 121.86 40.011C121.939 40.011 122.016 40.0548 122.089 40.1424L126.578 46.202H126.484V40.2411C126.484 40.0877 126.557 40.011 126.703 40.011C126.849 40.011 126.922 40.0877 126.922 40.2411V46.717C126.922 46.8704 126.849 46.9471 126.703 46.9471C126.623 46.9471 126.547 46.9033 126.474 46.8156L121.985 40.7561H122.078V46.717C122.078 46.8704 122.005 46.9471 121.86 46.9471Z" fill="white"/>
<path d="M136.844 46.9471C136.104 46.9471 135.566 46.7718 135.229 46.4211C134.896 46.0668 134.729 45.5007 134.729 44.7227V42.2353C134.729 41.4501 134.896 40.8839 135.229 40.5369C135.566 40.1863 136.101 40.011 136.833 40.011H138.094C138.729 40.011 139.198 40.1498 139.5 40.4273C139.802 40.7049 139.965 41.1542 139.99 41.7751C139.997 41.8518 139.981 41.9121 139.943 41.9559C139.908 41.9961 139.854 42.0162 139.781 42.0162C139.639 42.0162 139.563 41.9395 139.552 41.7861C139.531 41.293 139.41 40.9515 139.188 40.7616C138.969 40.568 138.604 40.4712 138.094 40.4712H136.833C136.424 40.4712 136.097 40.5278 135.854 40.641C135.611 40.7542 135.436 40.9405 135.328 41.1999C135.221 41.4555 135.167 41.8007 135.167 42.2353V44.7227C135.167 45.1537 135.221 45.4989 135.328 45.7582C135.439 46.0139 135.616 46.2002 135.859 46.317C136.106 46.4303 136.434 46.4869 136.844 46.4869H138.094C138.462 46.4869 138.752 46.4394 138.964 46.3444C139.179 46.2458 139.332 46.0851 139.422 45.8623C139.516 45.6358 139.563 45.329 139.563 44.9419V44.1968L138.313 44.1858C138.167 44.1858 138.094 44.1091 138.094 43.9557C138.094 43.8023 138.167 43.7256 138.313 43.7256L139.781 43.7365C139.927 43.7365 140 43.8132 140 43.9666V44.9419C140 45.6468 139.851 46.1582 139.552 46.4759C139.253 46.79 138.767 46.9471 138.094 46.9471H136.844Z" fill="white"/>
<defs>
<clipPath id="clip0_3113_326">
<rect width="58.3517" height="51.0989" fill="white" transform="translate(0 2.63733)"/>
</clipPath>
</defs>
</svg>
