<svg width="150" height="58" viewBox="0 0 150 58" fill="none" xmlns="http://www.w3.org/2000/svg">
<path d="M65.95 32.3226V32.3726H66H74.8082C76.2642 32.3726 77.5054 32.1234 78.5299 31.6225L78.5301 31.6224C79.5534 31.1153 80.3373 30.4247 80.8794 29.5501L80.8795 29.5499C81.4215 28.6688 81.6921 27.6696 81.6921 26.5536C81.6921 25.5533 81.4861 24.6854 81.0722 23.9517C80.6593 23.2131 80.1103 22.6361 79.4252 22.2219C78.7606 21.8163 78.0367 21.5899 77.2544 21.5428V21.4287C77.9665 21.2648 78.5957 20.9832 79.1413 20.5833C79.6971 20.176 80.1335 19.6632 80.4501 19.0455L80.4502 19.0453C80.7673 18.4199 80.9253 17.7106 80.9253 16.9185C80.9253 15.8764 80.6707 14.9573 80.1602 14.1631C79.6557 13.3681 78.8996 12.7514 77.8954 12.3119C76.8968 11.872 75.6594 11.6532 74.1852 11.6532H66H65.95V11.7032V32.3226ZM75.9168 27.6529L75.9166 27.6531C75.4441 28.0515 74.701 28.2555 73.6773 28.2555H70.7944V23.4423H73.7635C74.3648 23.4423 74.8776 23.5486 75.3037 23.7593L75.3042 23.7595C75.7305 23.9637 76.0584 24.2559 76.2895 24.6365L76.2897 24.6368C76.5204 25.0101 76.6368 25.4571 76.6368 25.9798C76.6368 26.6989 76.3957 27.2544 75.9168 27.6529ZM75.6485 19.0955L75.6482 19.0961C75.4302 19.4297 75.1248 19.6855 74.7302 19.8631C74.3351 20.041 73.8823 20.1306 73.3706 20.1306H70.7944V15.71H73.4472C74.2313 15.71 74.848 15.9058 75.303 16.2921C75.7568 16.6773 75.9851 17.2062 75.9851 17.885C75.9851 18.3601 75.8721 18.7628 75.6485 19.0955ZM88.1692 32.3726H88.2064L88.2171 32.3369L89.4977 28.0434H96.2021L97.4854 32.3369L97.4961 32.3726H97.5333H102.632H102.701L102.68 32.3073L96.057 11.688L96.0458 11.6532H96.0094H89.6931H89.6567L89.6455 11.688L83.0226 32.3073L83.0016 32.3726H83.0702H88.1692ZM92.8859 16.9484L95.0407 24.1578H90.6567L92.807 16.9484H92.8859ZM104.696 32.3226V32.3726H104.746H109.49H109.54V32.3226V25.3149H111.889L115.465 32.3453L115.479 32.3726H115.509H120.685H120.767L120.729 32.2996L116.684 24.5007C117.751 23.9745 118.579 23.2208 119.166 22.24L119.166 22.2398C119.765 21.2304 120.064 20.0063 120.064 18.5697C120.064 17.1532 119.772 15.9262 119.185 14.8904C118.599 13.8481 117.764 13.0493 116.682 12.4945C115.607 11.933 114.33 11.6532 112.854 11.6532H104.746H104.696V11.7032V32.3226ZM111.829 21.2884H109.54V15.7704H111.829C112.533 15.7704 113.123 15.8771 113.601 16.0883L113.601 16.0885C114.078 16.2928 114.437 16.6014 114.68 17.0144L114.68 17.0147C114.924 17.421 115.047 17.9383 115.047 18.5697C115.047 19.2011 114.924 19.7149 114.681 20.1143C114.438 20.5069 114.079 20.8024 113.602 21.0002C113.131 21.1916 112.54 21.2884 111.829 21.2884ZM122.566 32.3226V32.3726H122.616H127.361H127.411V32.3226V26.7516L129.254 24.307L134.104 32.3485L134.118 32.3726H134.146H139.821H139.91L139.863 32.2963L132.798 20.9082L139.736 11.7334L139.796 11.6532H139.696H134.108H134.083L134.068 11.6734L127.594 20.3722H127.411V11.7032V11.6532H127.361H122.616H122.566V11.7032V32.3226Z" fill="black" stroke="black" stroke-width="0.1"/>
<g clip-path="url(#clip0_3113_328)">
<path fill-rule="evenodd" clip-rule="evenodd" d="M35.1279 26.4602L35.2361 28.3772L33.213 27.5407L35.1279 26.4602ZM40.0728 16.3152C40.0728 16.3152 42.9883 20.3196 35.4386 17.9209C35.4386 17.9209 37.0867 16.1444 40.0728 16.3152ZM36.1189 22.8329C38.5296 25.6519 38.137 30.3494 38.137 30.3494C37.5019 29.3533 35.8008 28.6019 35.8008 28.6019C36.5481 25.2571 36.1189 22.8329 36.1189 22.8329ZM41.6871 26.4873L38.9408 30.2082L38.7817 26.3648L41.6871 26.4873ZM41.4558 28.0217L42.1237 33.2484L39.1512 30.8758L41.4558 28.0217ZM45.4803 27.7466C45.1813 32.0306 42.2286 34.9625 42.2286 34.9625C43.3877 30.8463 42.5275 26.619 42.5275 26.619L45.4803 27.7466ZM23.2238 26.4596L23.116 28.3766L25.1393 27.5401L23.2238 26.4596ZM18.2789 16.3146C18.2789 16.3146 15.3634 20.3191 22.9131 17.9203C22.9131 17.9203 21.2649 16.1439 18.2789 16.3146ZM22.2334 22.8324C19.8226 25.6512 20.2152 30.3489 20.2152 30.3489C20.8504 29.3529 22.5509 28.6012 22.5509 28.6012C21.8035 25.2565 22.2334 22.8324 22.2334 22.8324ZM16.6645 26.4868L19.4115 30.2077L19.5704 26.3643L16.6645 26.4868ZM16.8959 28.0211L16.2274 33.2479L19.1999 30.8752L16.8959 28.0211ZM12.8714 27.746C13.1703 32.0301 16.1231 34.9619 16.1231 34.9619C14.9645 30.8457 15.8242 26.6183 15.8242 26.6183L12.8714 27.746ZM29.1762 13.3055C29.1762 13.3055 37.715 3.68419 43.844 10.5246C47.9135 2.38813 51.578 18.2958 52.889 19.0559C46.9354 17.6106 45.6033 5.79416 34.5385 13.5314C45.4679 8.19174 45.707 18.0338 48.2171 20.4841C48.2171 20.4841 45.1801 18.9713 41.8918 19.6293C41.8918 19.6293 42.6956 17.412 41.2566 15.7021C41.2566 15.7021 43.2563 15.6833 44.1903 17.0174C42.3108 6.45552 33.103 21.8681 31.1841 15.3073C31.1841 15.3073 30.6048 16.9232 31.0719 18.0508C31.0719 18.0508 29.6161 16.8104 29.1762 13.7475C28.7362 16.8104 27.2797 18.0508 27.2797 18.0508C27.7474 16.9232 27.1675 15.3073 27.1675 15.3073C25.2486 21.8681 16.0414 6.45552 14.1619 17.0174C15.0966 15.6833 17.0961 15.7021 17.0961 15.7021C15.6571 17.412 16.4609 19.6293 16.4609 19.6293C13.1721 18.9719 10.1357 20.4841 10.1357 20.4841C12.6464 18.0338 12.8843 8.19174 23.8143 13.5314C12.749 5.79416 11.4168 17.6106 5.46386 19.0559C6.77468 18.2953 10.4381 2.38813 14.5088 10.5246C20.6382 3.68419 29.1762 13.3055 29.1762 13.3055ZM35.1736 7.78051C35.1736 7.78051 31.6996 7.32958 29.1762 9.92275C26.6526 7.32958 23.1786 7.78051 23.1786 7.78051C25.3181 5.5905 33.0341 5.5905 35.1736 7.78051ZM55.3764 29.6506C58.1905 25.7715 55.7559 23.6299 54.3594 22.8006C56.3093 22.7631 57.8253 21.7257 58.3517 19.8443C51.9978 19.2992 54.1242 0.176531 43.3635 6.89332C42.6166 3.91727 37.837 5.45212 37.1003 5.70794C32.9088 2.55145 25.4404 2.55145 21.2496 5.70794C20.5136 5.45212 15.7339 3.91727 14.9866 6.89332C4.22702 0.177751 6.3534 19.3004 0 19.8454C0.526311 21.7269 2.04239 22.7642 3.99173 22.8017C2.59628 23.631 0.161305 25.7727 2.9747 29.6518C-13.4563 62.702 71.8078 62.702 55.3764 29.6518V29.6506ZM53.1782 31.637C53.1782 31.637 55.1598 40.1308 47.3862 45.5425C47.3862 45.5425 48.9931 40.6946 46.526 37.0112C46.526 37.0112 47.9835 43.7757 39.238 50.2406C39.238 50.2406 42.1535 47.459 41.854 42.9493C39.6577 54.1781 18.6929 54.1781 16.4965 42.9493C16.1976 47.459 19.1125 50.2406 19.1125 50.2406C10.3665 43.7757 11.8245 37.0112 11.8245 37.0112C9.35793 40.6946 10.965 45.5425 10.965 45.5425C3.19133 40.1302 5.17284 31.637 5.17284 31.637C6.4809 34.0799 8.64841 34.6812 8.64841 34.6812C-0.821261 22.8482 9.4398 22.1182 21.4302 21.2447C19.5243 20.2861 17.936 20.5125 17.936 20.5125C20.3743 19.3321 24.529 17.6526 26.7372 19.8733C26.7372 19.8733 24.3073 19.9481 23.7845 22.2781C23.8566 22.3445 30.6421 26.9763 27.709 26.9763L26.5691 26.3751L25.7281 27.0325C25.7281 27.0325 24.5317 26.0925 22.9999 25.4539C22.9999 25.4539 22.5887 22.6916 23.1494 21.0377C23.1494 21.0377 21.3551 21.7518 20.346 24.7586C20.346 24.7586 16.1604 23.1046 10.2925 25.4346C10.2925 25.4346 8.23723 32.5377 17.2817 39.0776C17.4266 26.0772 40.9245 26.0772 41.07 39.0776C50.1144 32.5383 48.0585 25.4346 48.0585 25.4346C42.1907 23.1046 38.005 24.7586 38.005 24.7586C36.996 21.7518 35.2017 21.0377 35.2017 21.0377C35.7623 22.6916 35.3513 25.4539 35.3513 25.4539C33.8187 26.0925 32.623 27.0325 32.623 27.0325L31.782 26.3751L30.6421 26.9763C27.709 26.9763 34.4945 22.3445 34.5661 22.2781C34.0426 19.9481 31.6134 19.8733 31.6134 19.8733C33.822 17.6526 37.9768 19.3321 40.4153 20.5125C40.4153 20.5125 38.8268 20.2867 36.9209 21.2447C48.9113 22.1182 59.1726 22.8482 49.7032 34.6812C49.7032 34.6812 51.8702 34.0799 53.1782 31.637Z" fill="black"/>
<circle cx="37" cy="17" r="1" fill="black"/>
<circle cx="21" cy="17" r="1" fill="black"/>
</g>
<path d="M67.8125 47.6394C67.184 47.6394 66.7239 47.4878 66.4323 47.1847C66.1441 46.8815 66 46.4012 66 45.7437C66 45.678 66.0208 45.6232 66.0625 45.5794C66.1042 45.5355 66.1562 45.5136 66.2187 45.5136C66.2812 45.5136 66.3333 45.5355 66.375 45.5794C66.4167 45.6232 66.4375 45.678 66.4375 45.7437C66.4375 46.2733 66.5382 46.6459 66.7396 46.8614C66.9444 47.0732 67.3021 47.1792 67.8125 47.1792H69.3124C69.8228 47.1792 70.1787 47.0732 70.3801 46.8614C70.585 46.6459 70.6874 46.2733 70.6874 45.7437C70.6874 45.2105 70.585 44.8379 70.3801 44.6261C70.1787 44.4142 69.8228 44.3083 69.3124 44.3083H67.8437C67.2465 44.3083 66.8107 44.1658 66.5364 43.8809C66.2621 43.5924 66.125 43.1358 66.125 42.5112C66.125 41.8867 66.2604 41.4319 66.5312 41.147C66.8055 40.8585 67.2396 40.7142 67.8333 40.7142H69.3645C69.9582 40.7142 70.3905 40.8567 70.6614 41.1415C70.9356 41.4264 71.0728 41.8794 71.0728 42.5003C71.0728 42.566 71.052 42.6208 71.0103 42.6647C70.9686 42.7085 70.9166 42.7304 70.8541 42.7304C70.7916 42.7304 70.7395 42.7085 70.6978 42.6647C70.6561 42.6208 70.6353 42.566 70.6353 42.5003C70.6353 42.0109 70.5398 41.6675 70.3489 41.4703C70.1614 41.273 69.8332 41.1744 69.3645 41.1744H67.8333C67.3646 41.1744 67.0347 41.2749 66.8437 41.4758C66.6562 41.673 66.5625 42.0182 66.5625 42.5112C66.5625 43.0043 66.658 43.3513 66.8489 43.5522C67.0399 43.7495 67.3715 43.8481 67.8437 43.8481H69.3124C69.9444 43.8481 70.4044 43.9997 70.6926 44.3028C70.9808 44.606 71.1249 45.0863 71.1249 45.7437C71.1249 46.4012 70.9808 46.8815 70.6926 47.1847C70.4044 47.4878 69.9444 47.6394 69.3124 47.6394H67.8125Z" fill="black"/>
<path d="M80.3594 47.6613C80.297 47.6613 80.2449 47.6394 80.2032 47.5956C80.1615 47.5517 80.1407 47.4969 80.1407 47.4312V41.1635H77.8595C77.797 41.1635 77.7449 41.1415 77.7033 41.0977C77.6616 41.0539 77.6408 40.9991 77.6408 40.9334C77.6408 40.8676 77.6616 40.8128 77.7033 40.769C77.7449 40.7252 77.797 40.7032 77.8595 40.7032H82.8594C82.9219 40.7032 82.974 40.7252 83.0156 40.769C83.0573 40.8128 83.0781 40.8676 83.0781 40.9334C83.0781 40.9991 83.0573 41.0539 83.0156 41.0977C82.974 41.1415 82.9219 41.1635 82.8594 41.1635H80.5782V47.4312C80.5782 47.4969 80.5574 47.5517 80.5157 47.5956C80.474 47.6394 80.4219 47.6613 80.3594 47.6613Z" fill="black"/>
<path d="M88.783 47.6284C88.6545 47.5627 88.6163 47.4604 88.6684 47.3216L91.2829 40.8895C91.3246 40.7726 91.4079 40.7142 91.5329 40.7142H91.5642C91.6788 40.7142 91.7621 40.7726 91.8142 40.8895L94.4183 47.3216C94.4773 47.4604 94.4391 47.5627 94.3037 47.6284C94.1718 47.6869 94.078 47.6467 94.0225 47.5079L93.2881 45.6889H89.8194L89.0747 47.5079C89.0191 47.6467 88.9219 47.6869 88.783 47.6284ZM90.0069 45.2287H93.1006L91.5642 41.4374L90.0069 45.2287Z" fill="black"/>
<path d="M101.852 47.6503C101.706 47.6503 101.634 47.5736 101.634 47.4202V40.9443C101.634 40.7909 101.706 40.7142 101.852 40.7142C101.998 40.7142 102.071 40.7909 102.071 40.9443V44.2809L105.311 40.7909C105.411 40.685 105.512 40.685 105.613 40.7909C105.72 40.8932 105.724 41.0028 105.623 41.1196L103.248 43.6727L106.04 47.3107C106.133 47.4312 106.123 47.5408 106.008 47.6394C105.897 47.7344 105.797 47.7234 105.706 47.6065L102.946 44.0015L102.071 44.9438V47.4202C102.071 47.5736 101.998 47.6503 101.852 47.6503Z" fill="black"/>
<path d="M113.509 47.6503C113.446 47.6503 113.394 47.6284 113.353 47.5846C113.311 47.5408 113.29 47.486 113.29 47.4202V40.9334C113.29 40.8676 113.311 40.8128 113.353 40.769C113.394 40.7252 113.446 40.7032 113.509 40.7032C113.571 40.7032 113.623 40.7252 113.665 40.769C113.707 40.8128 113.728 40.8676 113.728 40.9334V47.4202C113.728 47.486 113.707 47.5408 113.665 47.5846C113.623 47.6284 113.571 47.6503 113.509 47.6503Z" fill="black"/>
<path d="M121.86 47.6503C121.714 47.6503 121.641 47.5736 121.641 47.4202V40.9443C121.641 40.7909 121.714 40.7142 121.86 40.7142C121.939 40.7142 122.016 40.758 122.089 40.8457L126.578 46.9052H126.484V40.9443C126.484 40.7909 126.557 40.7142 126.703 40.7142C126.849 40.7142 126.922 40.7909 126.922 40.9443V47.4202C126.922 47.5736 126.849 47.6503 126.703 47.6503C126.623 47.6503 126.547 47.6065 126.474 47.5189L121.985 41.4593H122.078V47.4202C122.078 47.5736 122.005 47.6503 121.86 47.6503Z" fill="black"/>
<path d="M136.844 47.6503C136.104 47.6503 135.566 47.475 135.229 47.1244C134.896 46.7701 134.729 46.2039 134.729 45.426V42.9386C134.729 42.1533 134.896 41.5872 135.229 41.2402C135.566 40.8895 136.101 40.7142 136.833 40.7142H138.094C138.729 40.7142 139.198 40.853 139.5 41.1306C139.802 41.4082 139.965 41.8574 139.99 42.4784C139.997 42.5551 139.981 42.6153 139.943 42.6592C139.908 42.6994 139.854 42.7194 139.781 42.7194C139.639 42.7194 139.563 42.6427 139.552 42.4893C139.531 41.9962 139.41 41.6547 139.188 41.4648C138.969 41.2712 138.604 41.1744 138.094 41.1744H136.833C136.424 41.1744 136.097 41.231 135.854 41.3443C135.611 41.4575 135.436 41.6438 135.328 41.9031C135.221 42.1588 135.167 42.5039 135.167 42.9386V45.426C135.167 45.857 135.221 46.2021 135.328 46.4615C135.439 46.7171 135.616 46.9034 135.859 47.0203C136.106 47.1335 136.434 47.1901 136.844 47.1901H138.094C138.462 47.1901 138.752 47.1426 138.964 47.0477C139.179 46.9491 139.332 46.7884 139.422 46.5655C139.516 46.3391 139.563 46.0323 139.563 45.6451V44.9L138.313 44.889C138.167 44.889 138.094 44.8123 138.094 44.6589C138.094 44.5055 138.167 44.4288 138.313 44.4288L139.781 44.4398C139.927 44.4398 140 44.5165 140 44.6699V45.6451C140 46.35 139.851 46.8614 139.552 47.1792C139.253 47.4933 138.767 47.6503 138.094 47.6503H136.844Z" fill="black"/>
<defs>
<clipPath id="clip0_3113_328">
<rect width="58.3517" height="51.0989" fill="white" transform="translate(0 3.34058)"/>
</clipPath>
</defs>
</svg>
